<svg width="32" height="32" viewBox="0 0 32 32" fill="none" xmlns="http://www.w3.org/2000/svg">
<g filter="url(#filter0_i_4_19)">
<path d="M12.3293 2.0747C12.3293 1.2794 12.9716 0.634155 13.7699 0.634155H18.5717C19.37 0.634155 20.0122 1.2794 20.0122 2.0747C20.0122 2.87001 19.37 3.51525 18.5717 3.51525H17.6113V5.53322C19.454 5.78412 21.1407 6.50919 22.5512 7.5788L23.9798 6.15326L23.3015 5.4744C22.7373 4.91139 22.7373 3.99964 23.3015 3.43722C23.8657 2.87421 24.7781 2.87421 25.3363 3.43722L28.7336 6.83452C29.2978 7.39273 29.2978 8.30508 28.7336 8.86929C28.1694 9.43351 27.257 9.43351 26.6988 8.86929L26.0145 8.19103L24.592 9.61958C25.6604 11.0301 26.3867 12.7168 26.6388 14.5595H28.6555V13.5991C28.6555 12.8008 29.2978 12.1585 30.0961 12.1585C30.8944 12.1585 31.5366 12.8008 31.5366 13.5991V18.4009C31.5366 19.1992 30.8944 19.8415 30.0961 19.8415C29.2978 19.8415 28.6555 19.1992 28.6555 18.4009V17.4406H26.6388C26.3867 19.2833 25.6604 20.9699 24.592 22.3804L26.0145 23.809L26.6988 23.1307C27.257 22.5665 28.1694 22.5665 28.7336 23.1307C29.2978 23.6949 29.2978 24.6073 28.7336 25.1655L25.3363 28.5628C24.7781 29.127 23.8657 29.127 23.3015 28.5628C22.7373 27.9986 22.7373 27.0862 23.3015 26.528L23.9798 25.8438L22.5512 24.4212C21.1407 25.4896 19.454 26.2159 17.6113 26.468V28.4848H18.5717C19.37 28.4848 20.0122 29.127 20.0122 29.9253C20.0122 30.7236 19.37 31.3659 18.5717 31.3659H13.7699C12.9716 31.3659 12.3293 30.7236 12.3293 29.9253C12.3293 29.127 12.9716 28.4848 13.7699 28.4848H14.7302V26.468C12.8875 26.2159 11.2009 25.4896 9.79035 24.4212L8.36181 25.8498L9.04007 26.528C9.60428 27.0862 9.60428 27.9986 9.04007 28.5628C8.47585 29.127 7.56351 29.127 7.00529 28.5628L3.608 25.1655C3.04499 24.6073 3.04499 23.6949 3.608 23.1307C4.17041 22.5665 5.08276 22.5665 5.64518 23.1307L6.32403 23.809L7.74958 22.3804C6.67997 20.9699 5.95489 19.2833 5.704 17.4406H3.68603V18.4009C3.68603 19.1992 3.04078 19.8415 2.24548 19.8415C1.45018 19.8415 0.804932 19.1992 0.804932 18.4009V13.5991C0.804932 12.8008 1.45018 12.1585 2.24548 12.1585C3.04078 12.1585 3.68603 12.8008 3.68603 13.5991V14.5595H5.704C5.95489 12.7168 6.67997 11.0301 7.74958 9.61958L6.32403 8.19103L5.64518 8.86929C5.08216 9.43351 4.17041 9.43351 3.608 8.86929C3.04499 8.30508 3.04499 7.39273 3.608 6.83452L7.00529 3.43722C7.56351 2.87481 8.47585 2.87481 9.04007 3.43722C9.60428 3.99964 9.60428 4.91199 9.04007 5.4744L8.36181 6.15326L9.79035 7.5788C11.2009 6.50919 12.8875 5.78412 14.7302 5.53322V3.51525H13.7699C12.9716 3.51525 12.3293 2.87061 12.3293 2.0747ZM12.3293 11.1982C10.7387 11.1982 9.44823 12.4887 9.44823 14.0793C9.44823 15.6699 10.7387 16.9604 12.3293 16.9604C13.9199 16.9604 15.2104 15.6699 15.2104 14.0793C15.2104 12.4887 13.9199 11.1982 12.3293 11.1982ZM19.0519 20.3217C19.8502 20.3217 20.4924 19.6794 20.4924 18.8811C20.4924 18.0828 19.8502 17.4406 19.0519 17.4406C18.2536 17.4406 17.6113 18.0828 17.6113 18.8811C17.6113 19.6794 18.2536 20.3217 19.0519 20.3217Z" fill="black"/>
</g>
<defs>
<filter id="filter0_i_4_19" x="0.804932" y="0.634155" width="30.7317" height="36.5854" filterUnits="userSpaceOnUse" color-interpolation-filters="sRGB">
<feFlood flood-opacity="0" result="BackgroundImageFix"/>
<feBlend mode="normal" in="SourceGraphic" in2="BackgroundImageFix" result="shape"/>
<feColorMatrix in="SourceAlpha" type="matrix" values="0 0 0 0 0 0 0 0 0 0 0 0 0 0 0 0 0 0 127 0" result="hardAlpha"/>
<feOffset dy="5.85366"/>
<feGaussianBlur stdDeviation="182.927"/>
<feComposite in2="hardAlpha" operator="arithmetic" k2="-1" k3="1"/>
<feColorMatrix type="matrix" values="0 0 0 0 1 0 0 0 0 1 0 0 0 0 1 0 0 0 1 0"/>
<feBlend mode="normal" in2="shape" result="effect1_innerShadow_4_19"/>
</filter>
</defs>
</svg>
